<svg id="icn_etisalat_careers_logo" xmlns="http://www.w3.org/2000/svg" xmlns:xlink="http://www.w3.org/1999/xlink" width="133.473" height="55.8" viewBox="0 0 133.473 55.8">
  <defs>
    <clipPath id="clip-path">
      <rect id="Rectangle_4258" data-name="Rectangle 4258" width="133.473" height="33.8" fill="none"/>
    </clipPath>
  </defs>
  <g id="icn_etisalat_logo">
    <g id="Group_16982" data-name="Group 16982" clip-path="url(#clip-path)">
      <path id="Path_26964" data-name="Path 26964" d="M125.874,33.887H7.773A7.671,7.671,0,0,1,.1,26.214V7.773A7.671,7.671,0,0,1,7.773.1H125.887a7.671,7.671,0,0,1,7.673,7.673V26.214a7.674,7.674,0,0,1-7.686,7.673" transform="translate(-0.087 -0.087)" fill="#e00b14"/>
      <path id="Path_26965" data-name="Path 26965" d="M80.874,33.8H7.673A7.679,7.679,0,0,1,0,26.127V7.673A7.679,7.679,0,0,1,7.673,0h73.2a7.679,7.679,0,0,1,7.673,7.673V26.114A7.682,7.682,0,0,1,80.874,33.8"/>
      <path id="Path_26966" data-name="Path 26966" d="M819.345,78.715a12.721,12.721,0,0,0,1.547-4.86h-2.647a10.469,10.469,0,0,1-.614,2.98,8.112,8.112,0,0,1-1.368,2.391,4.273,4.273,0,0,1-3.223,1.637,2.833,2.833,0,0,1-2.9-1.7H807.3a2.929,2.929,0,0,1-2.916,1.663,3.277,3.277,0,0,1-3.223-3.3h8.862A3.507,3.507,0,0,1,812.5,75.1s1.292-.473,2.57-1.023a4.744,4.744,0,0,0,3.095-4.131c0-2.634-2.251-3.542-4.284-3.542-2.57,0-4.463,1.343-4.463,3.491a5.842,5.842,0,0,0,1.7,3.645,7.294,7.294,0,0,0-1.522.742,5.385,5.385,0,0,0-5.269-3.721,5.764,5.764,0,0,0-5.832,6.126c0,3.4,2.187,6.317,6.011,6.317a6.071,6.071,0,0,1,8.069,0,7.223,7.223,0,0,0,5.179-2.148l1.7,1.854h3.606Zm-5.461-10.333a1.6,1.6,0,0,1,1.765,1.637,2.859,2.859,0,0,1-1.944,2.57l-.026-.026a4.637,4.637,0,0,1-1.547-2.737,1.569,1.569,0,0,1,1.752-1.445m-9.578,4.22a2.989,2.989,0,0,1,3.031,2.98h-6.19a3.089,3.089,0,0,1,3.159-2.98" transform="translate(-696.385 -57.909)" fill="#fff"/>
      <path id="Path_26967" data-name="Path 26967" d="M74.185,110.82a6.189,6.189,0,0,1-2.6-.512,5.393,5.393,0,0,1-1.867-1.381,6.136,6.136,0,0,1-1.138-2.021,7.693,7.693,0,0,1-.384-2.443,7.016,7.016,0,0,1,.422-2.481,5.947,5.947,0,0,1,1.177-1.944,5.188,5.188,0,0,1,1.829-1.279,5.978,5.978,0,0,1,2.379-.46,5.584,5.584,0,0,1,2.494.537,5.259,5.259,0,0,1,1.829,1.471,6.175,6.175,0,0,1,1.087,2.212,8.552,8.552,0,0,1,.269,2.788H70.9a3.418,3.418,0,0,0,.281,1.317,3.5,3.5,0,0,0,.678,1.061,3.118,3.118,0,0,0,.985.691,3.05,3.05,0,0,0,1.228.243,2.8,2.8,0,0,0,2.865-1.662h2.6a5.461,5.461,0,0,1-.627,1.407,4.726,4.726,0,0,1-1.074,1.24,5.474,5.474,0,0,1-1.573.882,5.965,5.965,0,0,1-2.072.333m-.179-10.448a3.6,3.6,0,0,0-1.1.179,2.625,2.625,0,0,0-.972.55,3,3,0,0,0-.729.934,3.147,3.147,0,0,0-.307,1.343h6.087a3.272,3.272,0,0,0-.269-1.253,3.006,3.006,0,0,0-.639-.946,3.046,3.046,0,0,0-2.072-.806" transform="translate(-59.478 -85.729)" fill="#fff"/>
      <path id="Path_26968" data-name="Path 26968" d="M161.278,75.7h2.647v3.159h2.4v1.918h-2.4v6.509a1.817,1.817,0,0,0,.294,1.215,1.581,1.581,0,0,0,1.138.294h.959v2.021H164.36a7.385,7.385,0,0,1-1.56-.141,1.922,1.922,0,0,1-.934-.5,2.091,2.091,0,0,1-.46-.972,8.35,8.35,0,0,1-.128-1.522V80.764H159.5V78.846h1.778Z" transform="translate(-139.102 -66.019)" fill="#fff"/>
      <path id="Path_26969" data-name="Path 26969" d="M227.247,70.573H224.6V67.9h2.647Zm0,1.483V84.013H224.6V72.056Z" transform="translate(-195.877 -59.217)" fill="#fff"/>
      <path id="Path_26970" data-name="Path 26970" d="M265.9,102.106a1.772,1.772,0,0,0-.934-1.228,4.006,4.006,0,0,0-1.867-.384,3.359,3.359,0,0,0-1.573.345,1.054,1.054,0,0,0-.652.946c0,.742.576,1.228,1.739,1.471l1.624.332a15.189,15.189,0,0,1,1.675.46,5.029,5.029,0,0,1,1.368.652,2.753,2.753,0,0,1,1.24,2.443,3.371,3.371,0,0,1-.409,1.662,3.448,3.448,0,0,1-1.113,1.2,5.38,5.38,0,0,1-1.624.729,7.482,7.482,0,0,1-1.969.256,6.753,6.753,0,0,1-2.1-.307,5.139,5.139,0,0,1-1.624-.844,4.136,4.136,0,0,1-1.586-2.865h2.583a2.288,2.288,0,0,0,.87,1.483,3.124,3.124,0,0,0,1.957.537,3.418,3.418,0,0,0,1.778-.409,1.255,1.255,0,0,0,.665-1.125,1.211,1.211,0,0,0-.588-1.087,4.45,4.45,0,0,0-1.547-.575l-1.8-.384a9.13,9.13,0,0,1-1.445-.409,3.885,3.885,0,0,1-1.151-.665,2.9,2.9,0,0,1-.755-1,3.213,3.213,0,0,1-.281-1.407,2.7,2.7,0,0,1,.384-1.432,3.4,3.4,0,0,1,1.061-1.074,5.445,5.445,0,0,1,1.56-.691,6.979,6.979,0,0,1,1.893-.243,7.279,7.279,0,0,1,1.778.217,4.981,4.981,0,0,1,1.522.678,4.425,4.425,0,0,1,1.151,1.138,4,4,0,0,1,.652,1.586H265.9Z" transform="translate(-225.093 -85.903)" fill="#fff"/>
      <path id="Path_26971" data-name="Path 26971" d="M353.3,97.6a7.5,7.5,0,0,1,2.059.269,4.291,4.291,0,0,1,1.637.87,3.892,3.892,0,0,1,1.061,1.573,6.682,6.682,0,0,1,.345,2.4c0,.153,0,.345-.013.588s-.013.512-.013.793,0,.575-.013.882-.013.588-.013.857c0,.755.026,1.5.09,2.238a13.9,13.9,0,0,0,.269,1.854h-2.43c-.038-.256-.09-.5-.128-.729s-.077-.563-.1-.972a3.557,3.557,0,0,1-1.573,1.5,5.305,5.305,0,0,1-2.353.5,6.054,6.054,0,0,1-1.79-.256,4.2,4.2,0,0,1-1.407-.729,3.214,3.214,0,0,1-.908-1.125,3.283,3.283,0,0,1-.32-1.483,2.711,2.711,0,0,1,.639-1.842,4.785,4.785,0,0,1,1.739-1.2,11.7,11.7,0,0,1,2.558-.716q1.458-.249,3.108-.422v-.294a3.255,3.255,0,0,0-.2-1.253,2.052,2.052,0,0,0-.55-.806,1.88,1.88,0,0,0-.806-.422,4.224,4.224,0,0,0-1.023-.128,2.715,2.715,0,0,0-1.714.537,2.021,2.021,0,0,0-.729,1.624h-2.6a3.984,3.984,0,0,1,.473-1.663,4.378,4.378,0,0,1,1.074-1.3,5.142,5.142,0,0,1,1.6-.844A6.79,6.79,0,0,1,353.3,97.6m2.519,6.7q-1.42.134-2.417.307a7.942,7.942,0,0,0-1.65.448,2.275,2.275,0,0,0-.946.639,1.315,1.315,0,0,0-.294.882,1.464,1.464,0,0,0,.6,1.228,2.634,2.634,0,0,0,1.6.448,3.143,3.143,0,0,0,2.289-.806,3.682,3.682,0,0,0,.819-2.7Z" transform="translate(-303.235 -85.119)" fill="#fff"/>
      <rect id="Rectangle_4257" data-name="Rectangle 4257" width="2.647" height="16.113" transform="translate(57.369 8.683)" fill="#fff"/>
      <path id="Path_26972" data-name="Path 26972" d="M488.4,97.6a7.5,7.5,0,0,1,2.059.269,4.291,4.291,0,0,1,1.637.87,3.892,3.892,0,0,1,1.061,1.573,6.683,6.683,0,0,1,.345,2.4c0,.153,0,.345-.013.588s-.013.512-.013.793,0,.575-.013.882-.013.588-.013.857c0,.755.026,1.5.09,2.238a13.913,13.913,0,0,0,.269,1.854h-2.43c-.038-.256-.09-.5-.128-.729s-.077-.563-.1-.972a3.557,3.557,0,0,1-1.573,1.5,5.3,5.3,0,0,1-2.353.5,6.054,6.054,0,0,1-1.79-.256,4.2,4.2,0,0,1-1.407-.729,3.214,3.214,0,0,1-.908-1.125,3.283,3.283,0,0,1-.32-1.483,2.711,2.711,0,0,1,.639-1.842,4.785,4.785,0,0,1,1.739-1.2,11.7,11.7,0,0,1,2.558-.716q1.458-.249,3.108-.422v-.294a3.255,3.255,0,0,0-.2-1.253,2.052,2.052,0,0,0-.55-.806,1.879,1.879,0,0,0-.806-.422,4.224,4.224,0,0,0-1.023-.128,2.715,2.715,0,0,0-1.714.537,2.021,2.021,0,0,0-.729,1.624h-2.6a3.983,3.983,0,0,1,.473-1.663,4.378,4.378,0,0,1,1.074-1.3,5.142,5.142,0,0,1,1.6-.844A6.789,6.789,0,0,1,488.4,97.6m2.519,6.7q-1.42.134-2.417.307a7.944,7.944,0,0,0-1.65.448,2.275,2.275,0,0,0-.946.639,1.315,1.315,0,0,0-.294.882,1.464,1.464,0,0,0,.6,1.228,2.633,2.633,0,0,0,1.6.448,3.144,3.144,0,0,0,2.289-.806,3.683,3.683,0,0,0,.818-2.7Z" transform="translate(-421.058 -85.119)" fill="#fff"/>
      <path id="Path_26973" data-name="Path 26973" d="M574.078,75.7h2.647v3.159h2.4v1.918h-2.4v6.509a1.817,1.817,0,0,0,.294,1.215,1.581,1.581,0,0,0,1.138.294h.959v2.021H577.16a7.386,7.386,0,0,1-1.56-.141,1.923,1.923,0,0,1-.934-.5,2.09,2.09,0,0,1-.46-.972,8.351,8.351,0,0,1-.128-1.522V80.764H572.3V78.846h1.778Z" transform="translate(-499.112 -66.019)" fill="#fff"/>
      <path id="Path_26974" data-name="Path 26974" d="M737.346,56.9v2.059a1.248,1.248,0,0,1,.512-.486,1.6,1.6,0,0,1,.755-.179,1.775,1.775,0,0,1,.729.153,1.677,1.677,0,0,1,.588.448,2.073,2.073,0,0,1,.384.7,2.9,2.9,0,0,1,.141.921,3.043,3.043,0,0,1-.141.934,2.073,2.073,0,0,1-.384.7,1.677,1.677,0,0,1-.588.448,1.732,1.732,0,0,1-.729.153,1.6,1.6,0,0,1-.755-.179,1.335,1.335,0,0,1-.512-.486v.563H736.4V56.9Zm-.038,3.606a2.063,2.063,0,0,0,.09.652,1.409,1.409,0,0,0,.23.46.807.807,0,0,0,.358.269,1.02,1.02,0,0,0,.435.09.9.9,0,0,0,.78-.4,1.85,1.85,0,0,0,.281-1.074,1.743,1.743,0,0,0-.281-1.061.913.913,0,0,0-.78-.4,1.02,1.02,0,0,0-.435.09,1.057,1.057,0,0,0-.358.269,1.112,1.112,0,0,0-.23.46,1.981,1.981,0,0,0-.09.639" transform="translate(-642.226 -49.623)" fill="#fff"/>
      <path id="Path_26975" data-name="Path 26975" d="M768.358,74.152v-.716h.358a1.716,1.716,0,0,0,.268-.013.4.4,0,0,0,.2-.077.567.567,0,0,0,.166-.179,1.963,1.963,0,0,0,.141-.32l.051-.1L768,68.5h1.036l.972,3.056.972-3.056h.972l-1.5,4.259a5.086,5.086,0,0,1-.294.678,1.409,1.409,0,0,1-.32.422,1.109,1.109,0,0,1-.422.217,2.706,2.706,0,0,1-.6.064h-.46Z" transform="translate(-669.785 -59.74)" fill="#fff"/>
    </g>
  </g>
  <text id="A_transformative_tri" data-name="A transformative tri" transform="translate(8.5 50.8)" fill="#7b7b79" font-size="16" font-family="SuisseIntl-SemiBold, Suisse Intl" font-weight="600" opacity="0.92"><tspan x="0" y="0">Careers</tspan></text>
</svg>
